<svg xmlns="http://www.w3.org/2000/svg"><symbol id="arrow-left" viewBox="0 0 100 64.2"><path d="M1.41 35.51l27.28 27.28a4.828 4.828 0 0 0 6.82 0 4.828 4.828 0 0 0 0-6.82l-18.7-18.7h78.37c2.66 0 4.82-2.16 4.82-4.82s-2.16-4.82-4.82-4.82H16.12L35.51 8.24a4.828 4.828 0 0 0 0-6.82 4.828 4.828 0 0 0-6.82 0L1.41 28.69C.47 29.63 0 30.87 0 32.1s.47 2.47 1.41 3.41z"/></symbol><symbol id="linkedin" viewBox="0 0 256 256"><path d="M237.71 0H18.23C8.17 0 0 8.29 0 18.46v219.09c0 10.17 8.17 18.46 18.23 18.46h219.49c10.06 0 18.29-8.29 18.29-18.46V18.46C256 8.29 247.77 0 237.71 0zM77.37 219.43H39.43V97.26h38v122.17h-.06zM58.4 80.57c-12.17 0-22-9.89-22-22s9.83-22 22-22 22 9.89 22 22-9.83 22-22 22zm161.2 138.86h-37.94V160c0-14.17-.29-32.4-19.71-32.4s-22.8 15.43-22.8 31.37v60.46h-37.94V97.26h36.4v16.69h.51c5.09-9.6 17.49-19.71 35.94-19.71 38.4 0 45.54 25.31 45.54 58.23v66.97z"/></symbol><symbol id="arrow-right" viewBox="0 0 100 64.2"><path d="M98.59 28.69L71.31 1.41a4.828 4.828 0 0 0-6.82 0 4.828 4.828 0 0 0 0 6.82l18.7 18.7H4.82C2.16 26.93 0 29.09 0 31.75s2.16 4.82 4.82 4.82h79.06L64.49 55.96a4.828 4.828 0 0 0 0 6.82 4.828 4.828 0 0 0 6.82 0L98.59 35.5c.94-.94 1.41-2.18 1.41-3.41s-.47-2.47-1.41-3.41z"/></symbol><symbol id="github" viewBox="0 0 256 256"><path fill-rule="evenodd" d="M127.99 3.16C57.31 3.16 0 60.47 0 131.17c0 56.55 36.67 104.52 87.54 121.45 6.4 1.17 8.74-2.78 8.74-6.17 0-3.04-.11-11.09-.17-21.77-35.61 7.74-43.12-17.16-43.12-17.16-5.82-14.79-14.21-18.72-14.21-18.72-11.62-7.94.88-7.78.88-7.78 12.85.91 19.61 13.19 19.61 13.19 11.42 19.56 29.96 13.91 37.25 10.64 1.16-8.27 4.47-13.91 8.13-17.11-28.42-3.23-58.3-14.21-58.3-63.26 0-13.97 4.99-25.4 13.18-34.35-1.32-3.24-5.71-16.25 1.25-33.87 0 0 10.75-3.44 35.2 13.12 10.21-2.84 21.16-4.26 32.04-4.31 10.87.05 21.82 1.47 32.04 4.31 24.44-16.56 35.16-13.12 35.16-13.12 6.98 17.62 2.59 30.64 1.27 33.87 8.2 8.95 13.16 20.37 13.16 34.35 0 49.17-29.93 59.99-58.44 63.16 4.6 3.95 8.69 11.76 8.69 23.7 0 17.11-.16 30.92-.16 35.11 0 3.42 2.31 7.41 8.8 6.16 50.82-16.96 87.46-64.9 87.46-121.44 0-70.7-57.31-128.01-128.01-128.01z"/></symbol><symbol id="email" viewBox="0 0 256 256"><path d="M112.92 176.07L0 100.8v99.54c0 10.28 8.34 18.62 18.62 18.62h218.76c10.28 0 18.62-8.34 18.62-18.62V100.8l-112.92 75.27a27.178 27.178 0 0 1-30.16 0z"/><path d="M256 55.66v18.27L137.53 152.9a17.17 17.17 0 0 1-19.06 0L0 73.93V55.66c0-10.28 8.34-18.62 18.62-18.62h218.76c10.28 0 18.62 8.34 18.62 18.62z"/></symbol></svg>