<svg xmlns="http://www.w3.org/2000/svg"><symbol id="codenames" viewBox="0 0 100 100"><path d="M33.46 73.63c-3.35 0-6.55-.59-9.6-1.77s-5.79-2.92-8.22-5.22c-3.15-2.95-5.43-6.45-6.84-10.48a37.805 37.805 0 0 1-2.12-12.55c0-5.12 1.25-9.27 3.74-12.45 2.49-3.18 6.14-4.77 10.93-4.77.92 0 1.79.08 2.61.25s1.66.41 2.51.74L50 36.14l23.53-8.76c.85-.33 1.69-.57 2.51-.74s1.69-.25 2.61-.25c4.79 0 8.43 1.59 10.93 4.77s3.74 7.33 3.74 12.45c0 4.33-.71 8.52-2.12 12.55s-3.69 7.53-6.84 10.48c-2.43 2.3-5.17 4.04-8.22 5.22s-6.25 1.77-9.6 1.77c-4.33 0-8.01-.98-11.03-2.95l-4.53-2.95h-1.97l-4.53 2.95c-3.02 1.97-6.69 2.95-11.03 2.95zm0-7.88c2.43 0 4.69-.57 6.79-1.72s4.04-2.54 5.81-4.18h7.88c1.77 1.64 3.71 3.04 5.81 4.18s4.36 1.72 6.79 1.72 4.64-.41 6.84-1.23 4.15-2.08 5.86-3.79c2.23-2.23 3.82-4.86 4.77-7.88s1.43-6.1 1.43-9.25c0-2.69-.56-4.94-1.67-6.74s-2.89-2.67-5.32-2.61c-.2 0-.92.13-2.17.39l-26.29 9.84-26.29-9.84c-.33-.13-.67-.23-1.03-.3s-.74-.1-1.13-.1c-2.43 0-4.2.89-5.32 2.66s-1.67 4-1.67 6.69c0 3.22.48 6.33 1.43 9.35.95 3.02 2.58 5.64 4.87 7.88 1.71 1.64 3.64 2.87 5.81 3.69s4.43 1.23 6.79 1.23zm4.82-5.91c2.43 0 4.33-.54 5.71-1.62s2.07-2.58 2.07-4.48c0-3.22-2.12-6.28-6.35-9.2-4.23-2.92-8.71-4.38-13.44-4.38-2.43 0-4.33.54-5.71 1.62s-2.07 2.58-2.07 4.48c0 3.22 2.12 6.28 6.35 9.2 4.23 2.92 8.71 4.38 13.44 4.38zm-.59-5.9c-2.49 0-5.2-.82-8.12-2.46-2.92-1.64-4.64-3.31-5.17-5.02.33-.13.71-.25 1.13-.34s.87-.15 1.33-.15c2.49 0 5.2.84 8.12 2.51s4.64 3.36 5.17 5.07c-.33.13-.71.23-1.13.3s-.87.1-1.33.1zm24.03 6c4.73 0 9.2-1.48 13.44-4.43s6.35-6.04 6.35-9.25c0-1.9-.67-3.41-2.02-4.53s-3.27-1.67-5.76-1.67c-4.73 0-9.2 1.48-13.44 4.43s-6.35 6.04-6.35 9.25c0 1.9.69 3.41 2.07 4.53s3.28 1.67 5.71 1.67zm.59-6c-.46 0-.89-.03-1.28-.1s-.75-.16-1.08-.3c.53-1.71 2.25-3.38 5.17-5.02s5.63-2.46 8.12-2.46c.46 0 .89.03 1.28.1s.75.16 1.08.3c-.53 1.71-2.25 3.38-5.17 5.02s-5.63 2.46-8.12 2.46z"/></symbol><symbol id="arrow-right" viewBox="0 0 100 64.2"><path d="M99.4 34.39c.08-.15.17-.29.24-.45.07-.16.1-.33.15-.49.04-.13.09-.26.12-.4a4.91 4.91 0 0 0 0-1.88c-.03-.14-.08-.27-.12-.4-.05-.17-.09-.33-.15-.49-.07-.16-.16-.3-.24-.45-.07-.13-.12-.26-.2-.38a4.66 4.66 0 0 0-.6-.73L71.29 1.4a4.798 4.798 0 0 0-6.78 0 4.798 4.798 0 0 0 0 6.78L83.63 27.3H4.8a4.801 4.801 0 0 0 0 9.6h78.83L64.51 56.02a4.798 4.798 0 0 0 0 6.78 4.798 4.798 0 0 0 6.78 0l27.3-27.3c.22-.22.42-.47.6-.73.08-.12.14-.25.2-.38z"/></symbol><symbol id="arrow-left" viewBox="0 0 100 64.2"><path d="M95.2 27.3H16.38L35.5 8.18c1.87-1.87 1.87-4.91 0-6.78s-4.91-1.87-6.78 0L1.41 28.71c-.22.22-.42.47-.6.73-.08.12-.14.25-.2.38-.08.15-.17.29-.24.45-.07.16-.1.33-.15.49-.04.14-.09.27-.12.41-.07.3-.1.62-.1.93s.03.63.09.94c.03.14.08.27.12.41.05.16.09.33.15.49.07.16.16.3.24.45.07.13.12.26.2.38.18.26.37.51.6.73l27.3 27.3c1.87 1.87 4.91 1.87 6.78 0s1.87-4.91 0-6.78L16.36 36.9h78.83a4.801 4.801 0 0 0 0-9.6z"/></symbol><symbol id="arrow-up" viewBox="0 0 100 100"><path d="M80.52 43.86L53.07 16.41c-.22-.22-.47-.42-.74-.6-.12-.08-.25-.14-.38-.2-.15-.08-.29-.17-.45-.24-.16-.07-.33-.1-.49-.15-.14-.04-.27-.09-.41-.12-.31-.06-.63-.1-.94-.1h-.08c-.29 0-.58.03-.86.09-.14.03-.27.08-.41.12-.16.05-.33.09-.49.15-.16.07-.3.16-.45.24-.13.07-.26.12-.38.2-.26.18-.51.38-.73.6L18.81 43.85a4.828 4.828 0 0 0 0 6.82 4.828 4.828 0 0 0 6.82 0l19.22-19.22v48.71c0 2.66 2.16 4.82 4.82 4.82s4.82-2.16 4.82-4.82v-48.7l19.22 19.22a4.828 4.828 0 0 0 6.82 0 4.828 4.828 0 0 0 0-6.82z"/></symbol><symbol id="github" viewBox="0 0 256 256"><path fill-rule="evenodd" d="M127.99 3.16C57.31 3.16 0 60.47 0 131.17c0 56.55 36.67 104.52 87.54 121.45 6.4 1.17 8.74-2.78 8.74-6.17 0-3.04-.11-11.09-.17-21.77-35.61 7.74-43.12-17.16-43.12-17.16-5.82-14.79-14.21-18.72-14.21-18.72-11.62-7.94.88-7.78.88-7.78 12.85.91 19.61 13.19 19.61 13.19 11.42 19.56 29.96 13.91 37.25 10.64 1.16-8.27 4.47-13.91 8.13-17.11-28.42-3.23-58.3-14.21-58.3-63.26 0-13.97 4.99-25.4 13.18-34.35-1.32-3.24-5.71-16.25 1.25-33.87 0 0 10.75-3.44 35.2 13.12 10.21-2.84 21.16-4.26 32.04-4.31 10.87.05 21.82 1.47 32.04 4.31 24.44-16.56 35.16-13.12 35.16-13.12 6.98 17.62 2.59 30.64 1.27 33.87 8.2 8.95 13.16 20.37 13.16 34.35 0 49.17-29.93 59.99-58.44 63.16 4.6 3.95 8.69 11.76 8.69 23.7 0 17.11-.16 30.92-.16 35.11 0 3.42 2.31 7.41 8.8 6.16 50.82-16.96 87.46-64.9 87.46-121.44 0-70.7-57.31-128.01-128.01-128.01z"/></symbol><symbol id="bohnanza" viewBox="0 0 100 100"><path d="M64.43 64.87l5.19-18.71-16.01-11.05-5.19 18.71 16.01 11.05zm-50.5 18.15l-3.72-1.8c-2.33-.98-3.91-2.65-4.73-5.02s-.71-4.72.34-7.05l8.12-17.59v31.45zm18.03 9.81c-2.48 0-4.6-.9-6.37-2.71-1.77-1.8-2.65-3.95-2.65-6.43V56.75L35 89.89c.23.53.41 1.03.56 1.52s.41.96.79 1.41h-4.4zm23.23-.57c-2.33.83-4.66.71-6.99-.34s-3.91-2.74-4.73-5.07L23.51 31.73c-.83-2.33-.71-4.64.34-6.93s2.74-3.85 5.07-4.68l33.93-12.4c2.33-.83 4.64-.71 6.93.34s3.85 2.74 4.68 5.07l20.07 55.12c.83 2.33.71 4.64-.34 6.93s-2.74 3.85-5.07 4.68l-33.93 12.4zm-3.16-8.45l34.04-12.4-20.18-55.24-33.93 12.4 20.07 55.24z"/></symbol><symbol id="email" viewBox="0 0 256 256"><path d="M112.92 176.07L0 100.8v99.54c0 10.28 8.34 18.62 18.62 18.62h218.76c10.28 0 18.62-8.34 18.62-18.62V100.8l-112.92 75.27a27.178 27.178 0 0 1-30.16 0z"/><path d="M256 55.66v18.27L137.53 152.9a17.17 17.17 0 0 1-19.06 0L0 73.93V55.66c0-10.28 8.34-18.62 18.62-18.62h218.76c10.28 0 18.62 8.34 18.62 18.62z"/></symbol><symbol id="leagrr" viewBox="0 0 100 100"><path d="M8 83.6V71c0-1.19.4-2.19 1.21-2.99s1.8-1.21 2.99-1.21h4.2v16.8H8zm12.6 0V66.8h16.8l3.57-8.19 6.72 14.7-3.57 7.98c-.35.77-.88 1.35-1.58 1.73s-1.43.58-2.2.58H20.6zm63 0V66.8h4.2c1.19 0 2.19.4 2.99 1.21S92 69.81 92 71v12.6h-8.4zm-4.2 0H59.66c-.77 0-1.5-.19-2.2-.58s-1.23-.96-1.58-1.73L26.27 16.4h14.07L50 38.24l9.66-21.84h14.07L56.72 53.57 62.6 66.8h16.8v16.8z"/></symbol><symbol id="school" viewBox="0 0 100 100"><path d="M50 87.64L20.73 71.75V46.66L4 37.46l46-25.1 46 25.09V70.9h-8.36V42.05l-8.36 4.6v25.09L50.01 87.63zm0-34.71l28.65-15.47L50 21.99 21.35 37.46 50 52.93zm0 25.19l20.91-11.29V51.04L50 62.54l-20.91-11.5v15.79L50 78.12z"/></symbol><symbol id="linkedin" viewBox="0 0 256 256"><path d="M237.71 0H18.23C8.17 0 0 8.29 0 18.46v219.09c0 10.17 8.17 18.46 18.23 18.46h219.49c10.06 0 18.29-8.29 18.29-18.46V18.46C256 8.29 247.77 0 237.71 0zM77.37 219.43H39.43V97.26h38v122.17h-.06zM58.4 80.57c-12.17 0-22-9.89-22-22s9.83-22 22-22 22 9.89 22 22-9.83 22-22 22zm161.2 138.86h-37.94V160c0-14.17-.29-32.4-19.71-32.4s-22.8 15.43-22.8 31.37v60.46h-37.94V97.26h36.4v16.69h.51c5.09-9.6 17.49-19.71 35.94-19.71 38.4 0 45.54 25.31 45.54 58.23v66.97z"/></symbol><symbol id="sushi-go" viewBox="0 0 100 100"><path d="M14.56 63.83c-2.17 0-4.02-.77-5.56-2.31s-2.31-3.4-2.31-5.56V20.51c0-2.17.77-4.02 2.31-5.56s3.4-2.31 5.56-2.31h70.88c2.17 0 4.02.77 5.56 2.31s2.31 3.4 2.31 5.56v35.44c0 2.17-.77 4.02-2.31 5.56s-3.4 2.31-5.56 2.31H14.56zm0-43.32v35.44h70.88V20.51H14.56zm.29 57.1l-.3-5.91 70.78-3.74.3 5.91-70.78 3.74zm-.29 9.75v-5.91h70.88v5.91H14.56zm28.55-37.31c4.86 0 9.53-.85 14.03-2.56s8.42-4.33 11.76-7.88c.39 2.76 1.84 4.86 4.33 6.3s5.25 2.17 8.27 2.17V28.39c-3.02 0-5.78.74-8.27 2.22s-3.94 3.63-4.33 6.45c-3.48-3.41-7.43-6.04-11.86-7.88-4.43-1.84-9.07-2.76-13.93-2.76-5.18 0-10.17.9-14.96 2.71-4.79 1.8-8.66 4.84-11.62 9.11 2.95 4.27 6.83 7.3 11.62 9.11 4.79 1.8 9.78 2.71 14.96 2.71zM14.56 20.51v35.44-35.44z"/></symbol><symbol id="sun" viewBox="0 0 100 100"><path d="M50 17.66c2.69 0 5.3.33 7.8.95C53.97 12.73 50.48 5.99 50 1.7c-.49 4.29-3.98 11.03-7.8 16.91 2.5-.62 5.11-.95 7.8-.95zm30.11 44.16a32.438 32.438 0 0 1-4.83 8.35c4.96-.01 9.73.44 12.51 1.66-2.44-1.81-5.22-5.7-7.69-10zM19.89 38.18c1.19-3.03 2.83-5.84 4.83-8.35-4.96.01-9.73-.44-12.51-1.66 2.44 1.81 5.22 5.7 7.69 10zm9.95-13.46c2.51-2 5.31-3.64 8.35-4.83-4.3-2.47-8.2-5.24-10-7.69 1.21 2.79 1.67 7.55 1.66 12.51zM98.3 50c-4.29-.49-11.03-3.98-16.91-7.8.62 2.5.95 5.11.95 7.8s-.33 5.3-.95 7.8c5.88-3.83 12.62-7.32 16.91-7.8zM80.11 38.18c2.47-4.3 5.24-8.2 7.69-10-2.79 1.21-7.55 1.67-12.51 1.66 2 2.51 3.64 5.31 4.83 8.35zm-9.95-13.46c-.01-4.96.44-9.73 1.66-12.51-1.81 2.44-5.7 5.22-10 7.69 3.03 1.19 5.84 2.83 8.35 4.83zM50 82.34c-2.69 0-5.3-.33-7.8-.95 3.83 5.88 7.32 12.62 7.8 16.91.49-4.29 3.98-11.03 7.8-16.91-2.5.62-5.11.95-7.8.95zm20.16-7.06c-2.51 2-5.31 3.64-8.35 4.83 4.3 2.47 8.2 5.24 10 7.69-1.21-2.79-1.67-7.55-1.66-12.51zM17.66 50c0-2.69.33-5.3.95-7.8C12.73 46.03 5.99 49.52 1.7 50c4.29.49 11.03 3.98 16.91 7.8-.62-2.5-.95-5.11-.95-7.8zm2.23 11.82c-2.47 4.3-5.24 8.2-7.69 10 2.79-1.21 7.55-1.67 12.51-1.66-2-2.51-3.64-5.31-4.83-8.35zm9.95 13.46c.01 4.96-.44 9.73-1.66 12.51 1.81-2.44 5.7-5.22 10-7.69a32.438 32.438 0 0 1-8.35-4.83z"/><circle cx="50" cy="50" r="28.67"/></symbol><symbol id="responsive-type" viewBox="0 0 100 100"><path d="M29 83.6V29H8V16.4h54.6V29h-21v54.6H29zm37.8 0V50H54.2V37.4H92V50H79.4v33.6H66.8z"/></symbol><symbol id="website" viewBox="0 0 100 100"><path d="M50 98c-6.56 0-12.76-1.26-18.6-3.78-5.84-2.52-10.94-5.96-15.3-10.32-4.36-4.36-7.8-9.46-10.32-15.3S2 56.56 2 50s1.26-12.86 3.78-18.66c2.52-5.8 5.96-10.88 10.32-15.24 4.36-4.36 9.46-7.8 15.3-10.32C37.24 3.26 43.44 2 50 2s12.86 1.26 18.66 3.78c5.8 2.52 10.88 5.96 15.24 10.32s7.8 9.44 10.32 15.24C96.74 37.14 98 43.36 98 50s-1.26 12.76-3.78 18.6-5.96 10.94-10.32 15.3-9.44 7.8-15.24 10.32C62.86 96.74 56.64 98 50 98zm0-9.84c2.08-2.88 3.88-5.88 5.4-9s2.76-6.44 3.72-9.96H40.88c.96 3.52 2.2 6.84 3.72 9.96s3.32 6.12 5.4 9zm-12.48-1.92c-1.44-2.64-2.7-5.38-3.78-8.22a70.486 70.486 0 0 1-2.7-8.82H16.88c2.32 4 5.22 7.48 8.7 10.44 3.48 2.96 7.46 5.16 11.94 6.6zm24.96 0c4.48-1.44 8.46-3.64 11.94-6.6 3.48-2.96 6.38-6.44 8.7-10.44H68.96c-.72 3.04-1.62 5.98-2.7 8.82a66.524 66.524 0 0 1-3.78 8.22zM12.8 59.6h16.32c-.24-1.6-.42-3.18-.54-4.74s-.18-3.18-.18-4.86.06-3.3.18-4.86.3-3.14.54-4.74H12.8c-.4 1.6-.7 3.18-.9 4.74s-.3 3.18-.3 4.86.1 3.3.3 4.86.5 3.14.9 4.74zm25.92 0h22.56c.24-1.6.42-3.18.54-4.74S62 51.68 62 50s-.06-3.3-.18-4.86-.3-3.14-.54-4.74H38.72c-.24 1.6-.42 3.18-.54 4.74S38 48.32 38 50s.06 3.3.18 4.86.3 3.14.54 4.74zm32.16 0H87.2c.4-1.6.7-3.18.9-4.74s.3-3.18.3-4.86-.1-3.3-.3-4.86-.5-3.14-.9-4.74H70.88c.24 1.6.42 3.18.54 4.74s.18 3.18.18 4.86-.06 3.3-.18 4.86-.3 3.14-.54 4.74zm-1.92-28.8h14.16c-2.32-4-5.22-7.48-8.7-10.44s-7.46-5.16-11.94-6.6c1.44 2.64 2.7 5.38 3.78 8.22s1.98 5.78 2.7 8.82zm-28.08 0h18.24c-.96-3.52-2.2-6.84-3.72-9.96s-3.32-6.12-5.4-9c-2.08 2.88-3.88 5.88-5.4 9s-2.76 6.44-3.72 9.96zm-24 0h14.16c.72-3.04 1.62-5.98 2.7-8.82s2.34-5.58 3.78-8.22c-4.48 1.44-8.46 3.64-11.94 6.6s-6.38 6.44-8.7 10.44z"/></symbol><symbol id="moon" viewBox="0 0 100 100"><path d="M75.4 6.36c-.18 38.61-29.75 70.27-67.5 73.75 8.94 8.39 20.96 13.53 34.19 13.53 27.61 0 50-22.39 50-50 0-14.82-6.45-28.12-16.69-37.28z"/></symbol></svg>